<?xml version="1.0" encoding="UTF-8" standalone="no"?>
<!DOCTYPE svg PUBLIC "-//W3C//DTD SVG 1.1//EN"
 "http://www.w3.org/Graphics/SVG/1.1/DTD/svg11.dtd">
<!-- Generated by graphviz version 5.0.0 (20220707.1540)
 -->
<!-- Title: dependencies Pages: 1 -->
<svg width="397pt" height="247pt"
 viewBox="0.00 0.00 397.00 246.80" xmlns="http://www.w3.org/2000/svg" xmlns:xlink="http://www.w3.org/1999/xlink">
<g id="graph0" class="graph" transform="scale(1 1) rotate(0) translate(4 242.8)">
<title>dependencies</title>
<polygon fill="white" stroke="transparent" points="-4,4 -4,-242.8 393,-242.8 393,4 -4,4"/>
<text text-anchor="middle" x="194.5" y="-8.2" font-family="sans-serif" font-size="14.00">dependencies</text>
<g id="clust1" class="cluster">
<title>cluster_SharedModule</title>
<polygon fill="none" stroke="black" stroke-dasharray="1,5" points="8,-32.8 8,-230.8 381,-230.8 381,-32.8 8,-32.8"/>
</g>
<g id="clust2" class="cluster">
<title>cluster_SharedModule_declarations</title>
<polygon fill="none" stroke="black" points="22,-40.8 22,-92.8 368,-92.8 368,-40.8 22,-40.8"/>
</g>
<g id="clust7" class="cluster">
<title>cluster_SharedModule_exports</title>
<polygon fill="none" stroke="black" points="16,-170.8 16,-222.8 373,-222.8 373,-170.8 16,-170.8"/>
</g>
<!-- DownloadFile -->
<g id="node1" class="node">
<title>DownloadFile</title>
<polygon fill="#ffffb3" stroke="black" points="360.1,-84.8 263.9,-84.8 263.9,-48.8 360.1,-48.8 360.1,-84.8"/>
<text text-anchor="middle" x="312" y="-62.6" font-family="Times,serif" font-size="14.00">DownloadFile</text>
</g>
<!-- SharedModule -->
<g id="node4" class="node">
<title>SharedModule</title>
<polygon fill="#8dd3c7" stroke="black" points="235.43,-149.8 232.43,-153.8 211.43,-153.8 208.43,-149.8 136.57,-149.8 136.57,-113.8 235.43,-113.8 235.43,-149.8"/>
<text text-anchor="middle" x="186" y="-127.6" font-family="Times,serif" font-size="14.00">SharedModule</text>
</g>
<!-- DownloadFile&#45;&gt;SharedModule -->
<g id="edge1" class="edge">
<title>DownloadFile&#45;&gt;SharedModule</title>
<path fill="none" stroke="black" d="M328.43,-84.82C328.43,-102.17 328.43,-125.8 328.43,-125.8 328.43,-125.8 245.42,-125.8 245.42,-125.8"/>
<polygon fill="black" stroke="black" points="245.42,-122.3 235.42,-125.8 245.42,-129.3 245.42,-122.3"/>
</g>
<!-- SearchComponent -->
<g id="node2" class="node">
<title>SearchComponent</title>
<polygon fill="#ffffb3" stroke="black" points="245.92,-84.8 126.08,-84.8 126.08,-48.8 245.92,-48.8 245.92,-84.8"/>
<text text-anchor="middle" x="186" y="-62.6" font-family="Times,serif" font-size="14.00">SearchComponent</text>
</g>
<!-- SearchComponent&#45;&gt;SharedModule -->
<g id="edge2" class="edge">
<title>SearchComponent&#45;&gt;SharedModule</title>
<path fill="none" stroke="black" d="M186,-84.91C186,-84.91 186,-103.79 186,-103.79"/>
<polygon fill="black" stroke="black" points="182.5,-103.79 186,-113.79 189.5,-103.79 182.5,-103.79"/>
</g>
<!-- SearchPipe -->
<g id="node3" class="node">
<title>SearchPipe</title>
<polygon fill="#ffffb3" stroke="black" points="108.48,-84.8 29.52,-84.8 29.52,-48.8 108.48,-48.8 108.48,-84.8"/>
<text text-anchor="middle" x="69" y="-62.6" font-family="Times,serif" font-size="14.00">SearchPipe</text>
</g>
<!-- SearchPipe&#45;&gt;SharedModule -->
<g id="edge3" class="edge">
<title>SearchPipe&#45;&gt;SharedModule</title>
<path fill="none" stroke="black" d="M80.66,-84.82C80.66,-102.17 80.66,-125.8 80.66,-125.8 80.66,-125.8 126.72,-125.8 126.72,-125.8"/>
<polygon fill="black" stroke="black" points="126.72,-129.3 136.72,-125.8 126.72,-122.3 126.72,-129.3"/>
</g>
<!-- DownloadFile  -->
<g id="node5" class="node">
<title>DownloadFile </title>
<polygon fill="#fb8072" stroke="black" points="364.6,-214.8 265.4,-214.8 265.4,-178.8 364.6,-178.8 364.6,-214.8"/>
<text text-anchor="middle" x="315" y="-192.6" font-family="Times,serif" font-size="14.00">DownloadFile </text>
</g>
<!-- SharedModule&#45;&gt;DownloadFile  -->
<g id="edge4" class="edge">
<title>SharedModule&#45;&gt;DownloadFile </title>
<path fill="none" stroke="black" stroke-dasharray="5,2" d="M235.25,-137.8C264.85,-137.8 296.82,-137.8 296.82,-137.8 296.82,-137.8 296.82,-168.78 296.82,-168.78"/>
<polygon fill="black" stroke="black" points="293.32,-168.78 296.82,-178.78 300.32,-168.78 293.32,-168.78"/>
</g>
<!-- SearchComponent  -->
<g id="node6" class="node">
<title>SearchComponent </title>
<polygon fill="#fb8072" stroke="black" points="247.42,-214.8 124.58,-214.8 124.58,-178.8 247.42,-178.8 247.42,-214.8"/>
<text text-anchor="middle" x="186" y="-192.6" font-family="Times,serif" font-size="14.00">SearchComponent </text>
</g>
<!-- SharedModule&#45;&gt;SearchComponent  -->
<g id="edge5" class="edge">
<title>SharedModule&#45;&gt;SearchComponent </title>
<path fill="none" stroke="black" stroke-dasharray="5,2" d="M186,-149.91C186,-149.91 186,-168.79 186,-168.79"/>
<polygon fill="black" stroke="black" points="182.5,-168.79 186,-178.79 189.5,-168.79 182.5,-168.79"/>
</g>
<!-- SearchPipe  -->
<g id="node7" class="node">
<title>SearchPipe </title>
<polygon fill="#fb8072" stroke="black" points="106.48,-214.8 23.52,-214.8 23.52,-178.8 106.48,-178.8 106.48,-214.8"/>
<text text-anchor="middle" x="65" y="-192.6" font-family="Times,serif" font-size="14.00">SearchPipe </text>
</g>
<!-- SharedModule&#45;&gt;SearchPipe  -->
<g id="edge6" class="edge">
<title>SharedModule&#45;&gt;SearchPipe </title>
<path fill="none" stroke="black" stroke-dasharray="5,2" d="M136.51,-137.8C99.43,-137.8 55.09,-137.8 55.09,-137.8 55.09,-137.8 55.09,-168.78 55.09,-168.78"/>
<polygon fill="black" stroke="black" points="51.59,-168.78 55.09,-178.78 58.59,-168.78 51.59,-168.78"/>
</g>
</g>
</svg>
