<?xml version="1.0" encoding="UTF-8" standalone="no"?>
<!DOCTYPE svg PUBLIC "-//W3C//DTD SVG 1.1//EN"
 "http://www.w3.org/Graphics/SVG/1.1/DTD/svg11.dtd">
<!-- Generated by graphviz version 5.0.0 (20220707.1540)
 -->
<!-- Title: dependencies Pages: 1 -->
<svg width="856pt" height="174pt"
 viewBox="0.00 0.00 856.00 173.80" xmlns="http://www.w3.org/2000/svg" xmlns:xlink="http://www.w3.org/1999/xlink">
<g id="graph0" class="graph" transform="scale(1 1) rotate(0) translate(4 169.8)">
<title>dependencies</title>
<polygon fill="white" stroke="transparent" points="-4,4 -4,-169.8 852,-169.8 852,4 -4,4"/>
<text text-anchor="middle" x="424" y="-8.2" font-family="sans-serif" font-size="14.00">dependencies</text>
<g id="clust1" class="cluster">
<title>cluster_PokedexModule</title>
<polygon fill="none" stroke="black" stroke-dasharray="1,5" points="8,-32.8 8,-157.8 840,-157.8 840,-32.8 8,-32.8"/>
</g>
<g id="clust2" class="cluster">
<title>cluster_PokedexModule_declarations</title>
<polygon fill="none" stroke="black" points="434,-40.8 434,-92.8 832,-92.8 832,-40.8 434,-40.8"/>
</g>
<g id="clust6" class="cluster">
<title>cluster_PokedexModule_imports</title>
<polygon fill="none" stroke="black" points="16,-40.8 16,-92.8 426,-92.8 426,-40.8 16,-40.8"/>
</g>
<!-- DetailsComponent -->
<g id="node1" class="node">
<title>DetailsComponent</title>
<polygon fill="#ffffb3" stroke="black" points="824.49,-84.8 703.51,-84.8 703.51,-48.8 824.49,-48.8 824.49,-84.8"/>
<text text-anchor="middle" x="764" y="-62.6" font-family="Times,serif" font-size="14.00">DetailsComponent</text>
</g>
<!-- PokedexModule -->
<g id="node4" class="node">
<title>PokedexModule</title>
<polygon fill="#8dd3c7" stroke="black" points="480.77,-149.8 477.77,-153.8 456.77,-153.8 453.77,-149.8 373.23,-149.8 373.23,-113.8 480.77,-113.8 480.77,-149.8"/>
<text text-anchor="middle" x="427" y="-127.6" font-family="Times,serif" font-size="14.00">PokedexModule</text>
</g>
<!-- DetailsComponent&#45;&gt;PokedexModule -->
<g id="edge1" class="edge">
<title>DetailsComponent&#45;&gt;PokedexModule</title>
<path fill="none" stroke="black" d="M764,-85.08C764,-106.12 764,-137.8 764,-137.8 764,-137.8 490.77,-137.8 490.77,-137.8"/>
<polygon fill="black" stroke="black" points="490.77,-134.3 480.77,-137.8 490.77,-141.3 490.77,-134.3"/>
</g>
<!-- PokedexComponent -->
<g id="node2" class="node">
<title>PokedexComponent</title>
<polygon fill="#ffffb3" stroke="black" points="685.55,-84.8 556.45,-84.8 556.45,-48.8 685.55,-48.8 685.55,-84.8"/>
<text text-anchor="middle" x="621" y="-62.6" font-family="Times,serif" font-size="14.00">PokedexComponent</text>
</g>
<!-- PokedexComponent&#45;&gt;PokedexModule -->
<g id="edge2" class="edge">
<title>PokedexComponent&#45;&gt;PokedexModule</title>
<path fill="none" stroke="black" d="M621,-84.82C621,-102.17 621,-125.8 621,-125.8 621,-125.8 490.78,-125.8 490.78,-125.8"/>
<polygon fill="black" stroke="black" points="490.78,-122.3 480.78,-125.8 490.78,-129.3 490.78,-122.3"/>
</g>
<!-- QrComponent -->
<g id="node3" class="node">
<title>QrComponent</title>
<polygon fill="#ffffb3" stroke="black" points="538.1,-84.8 441.9,-84.8 441.9,-48.8 538.1,-48.8 538.1,-84.8"/>
<text text-anchor="middle" x="490" y="-62.6" font-family="Times,serif" font-size="14.00">QrComponent</text>
</g>
<!-- QrComponent&#45;&gt;PokedexModule -->
<g id="edge3" class="edge">
<title>QrComponent&#45;&gt;PokedexModule</title>
<path fill="none" stroke="black" d="M461.42,-84.91C461.42,-84.91 461.42,-103.79 461.42,-103.79"/>
<polygon fill="black" stroke="black" points="457.92,-103.79 461.42,-113.79 464.92,-103.79 457.92,-103.79"/>
</g>
<!-- MaterialModule -->
<g id="node5" class="node">
<title>MaterialModule</title>
<polygon fill="#8dd3c7" stroke="black" points="418.47,-84.8 415.47,-88.8 394.47,-88.8 391.47,-84.8 311.53,-84.8 311.53,-48.8 418.47,-48.8 418.47,-84.8"/>
<text text-anchor="middle" x="365" y="-62.6" font-family="Times,serif" font-size="14.00">MaterialModule</text>
</g>
<!-- MaterialModule&#45;&gt;PokedexModule -->
<g id="edge4" class="edge">
<title>MaterialModule&#45;&gt;PokedexModule</title>
<path fill="none" stroke="black" d="M395.8,-84.91C395.8,-84.91 395.8,-103.79 395.8,-103.79"/>
<polygon fill="black" stroke="black" points="392.3,-103.79 395.8,-113.79 399.3,-103.79 392.3,-103.79"/>
</g>
<!-- PokedexRoutingModule -->
<g id="node6" class="node">
<title>PokedexRoutingModule</title>
<polygon fill="#8dd3c7" stroke="black" points="293.38,-84.8 290.38,-88.8 269.38,-88.8 266.38,-84.8 140.62,-84.8 140.62,-48.8 293.38,-48.8 293.38,-84.8"/>
<text text-anchor="middle" x="217" y="-62.6" font-family="Times,serif" font-size="14.00">PokedexRoutingModule</text>
</g>
<!-- PokedexRoutingModule&#45;&gt;PokedexModule -->
<g id="edge5" class="edge">
<title>PokedexRoutingModule&#45;&gt;PokedexModule</title>
<path fill="none" stroke="black" d="M217,-84.82C217,-102.17 217,-125.8 217,-125.8 217,-125.8 363.19,-125.8 363.19,-125.8"/>
<polygon fill="black" stroke="black" points="363.19,-129.3 373.19,-125.8 363.19,-122.3 363.19,-129.3"/>
</g>
<!-- SharedModule -->
<g id="node7" class="node">
<title>SharedModule</title>
<polygon fill="#8dd3c7" stroke="black" points="122.43,-84.8 119.43,-88.8 98.43,-88.8 95.43,-84.8 23.57,-84.8 23.57,-48.8 122.43,-48.8 122.43,-84.8"/>
<text text-anchor="middle" x="73" y="-62.6" font-family="Times,serif" font-size="14.00">SharedModule</text>
</g>
<!-- SharedModule&#45;&gt;PokedexModule -->
<g id="edge6" class="edge">
<title>SharedModule&#45;&gt;PokedexModule</title>
<path fill="none" stroke="black" d="M73,-85.08C73,-106.12 73,-137.8 73,-137.8 73,-137.8 362.85,-137.8 362.85,-137.8"/>
<polygon fill="black" stroke="black" points="362.85,-141.3 372.85,-137.8 362.85,-134.3 362.85,-141.3"/>
</g>
</g>
</svg>
