<?xml version="1.0" encoding="UTF-8" standalone="no"?>
<!DOCTYPE svg PUBLIC "-//W3C//DTD SVG 1.1//EN"
 "http://www.w3.org/Graphics/SVG/1.1/DTD/svg11.dtd">
<!-- Generated by graphviz version 5.0.0 (20220707.1540)
 -->
<!-- Title: dependencies Pages: 1 -->
<svg width="652pt" height="174pt"
 viewBox="0.00 0.00 652.00 173.80" xmlns="http://www.w3.org/2000/svg" xmlns:xlink="http://www.w3.org/1999/xlink">
<g id="graph0" class="graph" transform="scale(1 1) rotate(0) translate(4 169.8)">
<title>dependencies</title>
<polygon fill="white" stroke="transparent" points="-4,4 -4,-169.8 648,-169.8 648,4 -4,4"/>
<text text-anchor="middle" x="322" y="-8.2" font-family="sans-serif" font-size="14.00">dependencies</text>
<g id="clust1" class="cluster">
<title>cluster_AuthenticationModule</title>
<polygon fill="none" stroke="black" stroke-dasharray="1,5" points="8,-32.8 8,-157.8 636,-157.8 636,-32.8 8,-32.8"/>
</g>
<g id="clust5" class="cluster">
<title>cluster_AuthenticationModule_imports</title>
<polygon fill="none" stroke="black" points="300,-40.8 300,-92.8 628,-92.8 628,-40.8 300,-40.8"/>
</g>
<g id="clust2" class="cluster">
<title>cluster_AuthenticationModule_declarations</title>
<polygon fill="none" stroke="black" points="16,-40.8 16,-92.8 292,-92.8 292,-40.8 16,-40.8"/>
</g>
<!-- SignInComponent -->
<g id="node1" class="node">
<title>SignInComponent</title>
<polygon fill="#ffffb3" stroke="black" points="284.17,-84.8 165.83,-84.8 165.83,-48.8 284.17,-48.8 284.17,-84.8"/>
<text text-anchor="middle" x="225" y="-62.6" font-family="Times,serif" font-size="14.00">SignInComponent</text>
</g>
<!-- AuthenticationModule -->
<g id="node3" class="node">
<title>AuthenticationModule</title>
<polygon fill="#8dd3c7" stroke="black" points="364.25,-149.8 361.25,-153.8 340.25,-153.8 337.25,-149.8 221.75,-149.8 221.75,-113.8 364.25,-113.8 364.25,-149.8"/>
<text text-anchor="middle" x="293" y="-127.6" font-family="Times,serif" font-size="14.00">AuthenticationModule</text>
</g>
<!-- SignInComponent&#45;&gt;AuthenticationModule -->
<g id="edge1" class="edge">
<title>SignInComponent&#45;&gt;AuthenticationModule</title>
<path fill="none" stroke="black" d="M252.98,-84.91C252.98,-84.91 252.98,-103.79 252.98,-103.79"/>
<polygon fill="black" stroke="black" points="249.48,-103.79 252.98,-113.79 256.48,-103.79 249.48,-103.79"/>
</g>
<!-- SignUpComponent -->
<g id="node2" class="node">
<title>SignUpComponent</title>
<polygon fill="#ffffb3" stroke="black" points="148.12,-84.8 23.88,-84.8 23.88,-48.8 148.12,-48.8 148.12,-84.8"/>
<text text-anchor="middle" x="86" y="-62.6" font-family="Times,serif" font-size="14.00">SignUpComponent</text>
</g>
<!-- SignUpComponent&#45;&gt;AuthenticationModule -->
<g id="edge2" class="edge">
<title>SignUpComponent&#45;&gt;AuthenticationModule</title>
<path fill="none" stroke="black" d="M86,-84.91C86,-104.14 86,-131.8 86,-131.8 86,-131.8 211.47,-131.8 211.47,-131.8"/>
<polygon fill="black" stroke="black" points="211.47,-135.3 221.47,-131.8 211.47,-128.3 211.47,-135.3"/>
</g>
<!-- AuthenticationRoutingModule -->
<g id="node4" class="node">
<title>AuthenticationRoutingModule</title>
<polygon fill="#8dd3c7" stroke="black" points="619.87,-84.8 616.87,-88.8 595.87,-88.8 592.87,-84.8 432.13,-84.8 432.13,-48.8 619.87,-48.8 619.87,-84.8"/>
<text text-anchor="middle" x="526" y="-62.6" font-family="Times,serif" font-size="14.00">AuthenticationRoutingModule</text>
</g>
<!-- AuthenticationRoutingModule&#45;&gt;AuthenticationModule -->
<g id="edge3" class="edge">
<title>AuthenticationRoutingModule&#45;&gt;AuthenticationModule</title>
<path fill="none" stroke="black" d="M526,-84.91C526,-104.14 526,-131.8 526,-131.8 526,-131.8 374.49,-131.8 374.49,-131.8"/>
<polygon fill="black" stroke="black" points="374.49,-128.3 364.49,-131.8 374.49,-135.3 374.49,-128.3"/>
</g>
<!-- MaterialModule -->
<g id="node5" class="node">
<title>MaterialModule</title>
<polygon fill="#8dd3c7" stroke="black" points="414.47,-84.8 411.47,-88.8 390.47,-88.8 387.47,-84.8 307.53,-84.8 307.53,-48.8 414.47,-48.8 414.47,-84.8"/>
<text text-anchor="middle" x="361" y="-62.6" font-family="Times,serif" font-size="14.00">MaterialModule</text>
</g>
<!-- MaterialModule&#45;&gt;AuthenticationModule -->
<g id="edge4" class="edge">
<title>MaterialModule&#45;&gt;AuthenticationModule</title>
<path fill="none" stroke="black" d="M335.94,-84.91C335.94,-84.91 335.94,-103.79 335.94,-103.79"/>
<polygon fill="black" stroke="black" points="332.44,-103.79 335.94,-113.79 339.44,-103.79 332.44,-103.79"/>
</g>
</g>
</svg>
