<?xml version="1.0" encoding="UTF-8" standalone="no"?>
<!DOCTYPE svg PUBLIC "-//W3C//DTD SVG 1.1//EN"
 "http://www.w3.org/Graphics/SVG/1.1/DTD/svg11.dtd">
<!-- Generated by graphviz version 5.0.0 (20220707.1540)
 -->
<!-- Title: dependencies Pages: 1 -->
<svg width="1253pt" height="174pt"
 viewBox="0.00 0.00 1253.00 173.80" xmlns="http://www.w3.org/2000/svg" xmlns:xlink="http://www.w3.org/1999/xlink">
<g id="graph0" class="graph" transform="scale(1 1) rotate(0) translate(4 169.8)">
<title>dependencies</title>
<polygon fill="white" stroke="transparent" points="-4,4 -4,-169.8 1249,-169.8 1249,4 -4,4"/>
<text text-anchor="middle" x="622.5" y="-8.2" font-family="sans-serif" font-size="14.00">dependencies</text>
<g id="clust1" class="cluster">
<title>cluster_TvShowsModule</title>
<polygon fill="none" stroke="black" stroke-dasharray="1,5" points="8,-32.8 8,-157.8 1237,-157.8 1237,-32.8 8,-32.8"/>
</g>
<g id="clust2" class="cluster">
<title>cluster_TvShowsModule_declarations</title>
<polygon fill="none" stroke="black" points="439,-40.8 439,-92.8 1229,-92.8 1229,-40.8 439,-40.8"/>
</g>
<g id="clust8" class="cluster">
<title>cluster_TvShowsModule_imports</title>
<polygon fill="none" stroke="black" points="16,-40.8 16,-92.8 431,-92.8 431,-40.8 16,-40.8"/>
</g>
<!-- CardsListComponent -->
<g id="node1" class="node">
<title>CardsListComponent</title>
<polygon fill="#ffffb3" stroke="black" points="1220.77,-84.8 1085.23,-84.8 1085.23,-48.8 1220.77,-48.8 1220.77,-84.8"/>
<text text-anchor="middle" x="1153" y="-62.6" font-family="Times,serif" font-size="14.00">CardsListComponent</text>
</g>
<!-- TvShowsModule -->
<g id="node6" class="node">
<title>TvShowsModule</title>
<polygon fill="#8dd3c7" stroke="black" points="636.45,-149.8 633.45,-153.8 612.45,-153.8 609.45,-149.8 523.55,-149.8 523.55,-113.8 636.45,-113.8 636.45,-149.8"/>
<text text-anchor="middle" x="580" y="-127.6" font-family="Times,serif" font-size="14.00">TvShowsModule</text>
</g>
<!-- CardsListComponent&#45;&gt;TvShowsModule -->
<g id="edge1" class="edge">
<title>CardsListComponent&#45;&gt;TvShowsModule</title>
<path fill="none" stroke="black" d="M1153,-85.09C1153,-107.01 1153,-140.8 1153,-140.8 1153,-140.8 646.25,-140.8 646.25,-140.8"/>
<polygon fill="black" stroke="black" points="646.25,-137.3 636.25,-140.8 646.25,-144.3 646.25,-137.3"/>
</g>
<!-- DigimonMoviesComponent -->
<g id="node2" class="node">
<title>DigimonMoviesComponent</title>
<polygon fill="#ffffb3" stroke="black" points="1067.61,-84.8 894.39,-84.8 894.39,-48.8 1067.61,-48.8 1067.61,-84.8"/>
<text text-anchor="middle" x="981" y="-62.6" font-family="Times,serif" font-size="14.00">DigimonMoviesComponent</text>
</g>
<!-- DigimonMoviesComponent&#45;&gt;TvShowsModule -->
<g id="edge2" class="edge">
<title>DigimonMoviesComponent&#45;&gt;TvShowsModule</title>
<path fill="none" stroke="black" d="M981,-84.91C981,-104.14 981,-131.8 981,-131.8 981,-131.8 646.6,-131.8 646.6,-131.8"/>
<polygon fill="black" stroke="black" points="646.6,-128.3 636.6,-131.8 646.6,-135.3 646.6,-128.3"/>
</g>
<!-- DigimonSeriesComponent -->
<g id="node3" class="node">
<title>DigimonSeriesComponent</title>
<polygon fill="#ffffb3" stroke="black" points="876.82,-84.8 711.18,-84.8 711.18,-48.8 876.82,-48.8 876.82,-84.8"/>
<text text-anchor="middle" x="794" y="-62.6" font-family="Times,serif" font-size="14.00">DigimonSeriesComponent</text>
</g>
<!-- DigimonSeriesComponent&#45;&gt;TvShowsModule -->
<g id="edge3" class="edge">
<title>DigimonSeriesComponent&#45;&gt;TvShowsModule</title>
<path fill="none" stroke="black" d="M794,-84.83C794,-101.2 794,-122.8 794,-122.8 794,-122.8 646.23,-122.8 646.23,-122.8"/>
<polygon fill="black" stroke="black" points="646.23,-119.3 636.23,-122.8 646.23,-126.3 646.23,-119.3"/>
</g>
<!-- PaginatorPipe -->
<g id="node4" class="node">
<title>PaginatorPipe</title>
<polygon fill="#ffffb3" stroke="black" points="693.05,-84.8 598.95,-84.8 598.95,-48.8 693.05,-48.8 693.05,-84.8"/>
<text text-anchor="middle" x="646" y="-62.6" font-family="Times,serif" font-size="14.00">PaginatorPipe</text>
</g>
<!-- PaginatorPipe&#45;&gt;TvShowsModule -->
<g id="edge4" class="edge">
<title>PaginatorPipe&#45;&gt;TvShowsModule</title>
<path fill="none" stroke="black" d="M617.48,-84.91C617.48,-84.91 617.48,-103.79 617.48,-103.79"/>
<polygon fill="black" stroke="black" points="613.98,-103.79 617.48,-113.79 620.98,-103.79 613.98,-103.79"/>
</g>
<!-- TvShowsComponent -->
<g id="node5" class="node">
<title>TvShowsComponent</title>
<polygon fill="#ffffb3" stroke="black" points="581.23,-84.8 446.77,-84.8 446.77,-48.8 581.23,-48.8 581.23,-84.8"/>
<text text-anchor="middle" x="514" y="-62.6" font-family="Times,serif" font-size="14.00">TvShowsComponent</text>
</g>
<!-- TvShowsComponent&#45;&gt;TvShowsModule -->
<g id="edge5" class="edge">
<title>TvShowsComponent&#45;&gt;TvShowsModule</title>
<path fill="none" stroke="black" d="M552.44,-84.91C552.44,-84.91 552.44,-103.79 552.44,-103.79"/>
<polygon fill="black" stroke="black" points="548.94,-103.79 552.44,-113.79 555.94,-103.79 548.94,-103.79"/>
</g>
<!-- MaterialModule -->
<g id="node7" class="node">
<title>MaterialModule</title>
<polygon fill="#8dd3c7" stroke="black" points="423.47,-84.8 420.47,-88.8 399.47,-88.8 396.47,-84.8 316.53,-84.8 316.53,-48.8 423.47,-48.8 423.47,-84.8"/>
<text text-anchor="middle" x="370" y="-62.6" font-family="Times,serif" font-size="14.00">MaterialModule</text>
</g>
<!-- MaterialModule&#45;&gt;TvShowsModule -->
<g id="edge6" class="edge">
<title>MaterialModule&#45;&gt;TvShowsModule</title>
<path fill="none" stroke="black" d="M370,-84.83C370,-101.2 370,-122.8 370,-122.8 370,-122.8 513.72,-122.8 513.72,-122.8"/>
<polygon fill="black" stroke="black" points="513.72,-126.3 523.72,-122.8 513.72,-119.3 513.72,-126.3"/>
</g>
<!-- SharedModule -->
<g id="node8" class="node">
<title>SharedModule</title>
<polygon fill="#8dd3c7" stroke="black" points="298.43,-84.8 295.43,-88.8 274.43,-88.8 271.43,-84.8 199.57,-84.8 199.57,-48.8 298.43,-48.8 298.43,-84.8"/>
<text text-anchor="middle" x="249" y="-62.6" font-family="Times,serif" font-size="14.00">SharedModule</text>
</g>
<!-- SharedModule&#45;&gt;TvShowsModule -->
<g id="edge7" class="edge">
<title>SharedModule&#45;&gt;TvShowsModule</title>
<path fill="none" stroke="black" d="M249,-84.91C249,-104.14 249,-131.8 249,-131.8 249,-131.8 513.48,-131.8 513.48,-131.8"/>
<polygon fill="black" stroke="black" points="513.48,-135.3 523.48,-131.8 513.48,-128.3 513.48,-135.3"/>
</g>
<!-- TvShowsRoutingModule -->
<g id="node9" class="node">
<title>TvShowsRoutingModule</title>
<polygon fill="#8dd3c7" stroke="black" points="181.57,-84.8 178.57,-88.8 157.57,-88.8 154.57,-84.8 24.43,-84.8 24.43,-48.8 181.57,-48.8 181.57,-84.8"/>
<text text-anchor="middle" x="103" y="-62.6" font-family="Times,serif" font-size="14.00">TvShowsRoutingModule</text>
</g>
<!-- TvShowsRoutingModule&#45;&gt;TvShowsModule -->
<g id="edge8" class="edge">
<title>TvShowsRoutingModule&#45;&gt;TvShowsModule</title>
<path fill="none" stroke="black" d="M103,-85.09C103,-107.01 103,-140.8 103,-140.8 103,-140.8 513.41,-140.8 513.41,-140.8"/>
<polygon fill="black" stroke="black" points="513.41,-144.3 523.41,-140.8 513.41,-137.3 513.41,-144.3"/>
</g>
</g>
</svg>
