<?xml version="1.0" encoding="UTF-8" standalone="no"?>
<!DOCTYPE svg PUBLIC "-//W3C//DTD SVG 1.1//EN"
 "http://www.w3.org/Graphics/SVG/1.1/DTD/svg11.dtd">
<!-- Generated by graphviz version 5.0.0 (20220707.1540)
 -->
<!-- Title: dependencies Pages: 1 -->
<svg width="608pt" height="174pt"
 viewBox="0.00 0.00 608.00 173.80" xmlns="http://www.w3.org/2000/svg" xmlns:xlink="http://www.w3.org/1999/xlink">
<g id="graph0" class="graph" transform="scale(1 1) rotate(0) translate(4 169.8)">
<title>dependencies</title>
<polygon fill="white" stroke="transparent" points="-4,4 -4,-169.8 604,-169.8 604,4 -4,4"/>
<text text-anchor="middle" x="300" y="-8.2" font-family="sans-serif" font-size="14.00">dependencies</text>
<g id="clust1" class="cluster">
<title>cluster_HomeModule</title>
<polygon fill="none" stroke="black" stroke-dasharray="1,5" points="8,-32.8 8,-157.8 592,-157.8 592,-32.8 8,-32.8"/>
</g>
<g id="clust5" class="cluster">
<title>cluster_HomeModule_imports</title>
<polygon fill="none" stroke="black" points="305,-40.8 305,-92.8 584,-92.8 584,-40.8 305,-40.8"/>
</g>
<g id="clust2" class="cluster">
<title>cluster_HomeModule_declarations</title>
<polygon fill="none" stroke="black" points="16,-40.8 16,-92.8 297,-92.8 297,-40.8 16,-40.8"/>
</g>
<!-- CarouselComponent -->
<g id="node1" class="node">
<title>CarouselComponent</title>
<polygon fill="#ffffb3" stroke="black" points="288.6,-84.8 157.4,-84.8 157.4,-48.8 288.6,-48.8 288.6,-84.8"/>
<text text-anchor="middle" x="223" y="-62.6" font-family="Times,serif" font-size="14.00">CarouselComponent</text>
</g>
<!-- HomeModule -->
<g id="node3" class="node">
<title>HomeModule</title>
<polygon fill="#8dd3c7" stroke="black" points="340.77,-149.8 337.77,-153.8 316.77,-153.8 313.77,-149.8 247.23,-149.8 247.23,-113.8 340.77,-113.8 340.77,-149.8"/>
<text text-anchor="middle" x="294" y="-127.6" font-family="Times,serif" font-size="14.00">HomeModule</text>
</g>
<!-- CarouselComponent&#45;&gt;HomeModule -->
<g id="edge1" class="edge">
<title>CarouselComponent&#45;&gt;HomeModule</title>
<path fill="none" stroke="black" d="M267.83,-84.91C267.83,-84.91 267.83,-103.79 267.83,-103.79"/>
<polygon fill="black" stroke="black" points="264.33,-103.79 267.83,-113.79 271.33,-103.79 264.33,-103.79"/>
</g>
<!-- HomeComponent -->
<g id="node2" class="node">
<title>HomeComponent</title>
<polygon fill="#ffffb3" stroke="black" points="139.55,-84.8 24.45,-84.8 24.45,-48.8 139.55,-48.8 139.55,-84.8"/>
<text text-anchor="middle" x="82" y="-62.6" font-family="Times,serif" font-size="14.00">HomeComponent</text>
</g>
<!-- HomeComponent&#45;&gt;HomeModule -->
<g id="edge2" class="edge">
<title>HomeComponent&#45;&gt;HomeModule</title>
<path fill="none" stroke="black" d="M82,-84.91C82,-104.14 82,-131.8 82,-131.8 82,-131.8 237.21,-131.8 237.21,-131.8"/>
<polygon fill="black" stroke="black" points="237.21,-135.3 247.21,-131.8 237.21,-128.3 237.21,-135.3"/>
</g>
<!-- HomeRoutingModule -->
<g id="node4" class="node">
<title>HomeRoutingModule</title>
<polygon fill="#8dd3c7" stroke="black" points="576.38,-84.8 573.38,-88.8 552.38,-88.8 549.38,-84.8 437.62,-84.8 437.62,-48.8 576.38,-48.8 576.38,-84.8"/>
<text text-anchor="middle" x="507" y="-62.6" font-family="Times,serif" font-size="14.00">HomeRoutingModule</text>
</g>
<!-- HomeRoutingModule&#45;&gt;HomeModule -->
<g id="edge3" class="edge">
<title>HomeRoutingModule&#45;&gt;HomeModule</title>
<path fill="none" stroke="black" d="M507,-84.91C507,-104.14 507,-131.8 507,-131.8 507,-131.8 351.01,-131.8 351.01,-131.8"/>
<polygon fill="black" stroke="black" points="351.01,-128.3 341.01,-131.8 351.01,-135.3 351.01,-128.3"/>
</g>
<!-- MaterialModule -->
<g id="node5" class="node">
<title>MaterialModule</title>
<polygon fill="#8dd3c7" stroke="black" points="419.47,-84.8 416.47,-88.8 395.47,-88.8 392.47,-84.8 312.53,-84.8 312.53,-48.8 419.47,-48.8 419.47,-84.8"/>
<text text-anchor="middle" x="366" y="-62.6" font-family="Times,serif" font-size="14.00">MaterialModule</text>
</g>
<!-- MaterialModule&#45;&gt;HomeModule -->
<g id="edge4" class="edge">
<title>MaterialModule&#45;&gt;HomeModule</title>
<path fill="none" stroke="black" d="M326.7,-84.91C326.7,-84.91 326.7,-103.79 326.7,-103.79"/>
<polygon fill="black" stroke="black" points="323.2,-103.79 326.7,-113.79 330.2,-103.79 323.2,-103.79"/>
</g>
</g>
</svg>
