<?xml version="1.0" encoding="UTF-8" standalone="no"?>
<!DOCTYPE svg PUBLIC "-//W3C//DTD SVG 1.1//EN"
 "http://www.w3.org/Graphics/SVG/1.1/DTD/svg11.dtd">
<!-- Generated by graphviz version 5.0.0 (20220707.1540)
 -->
<!-- Title: dependencies Pages: 1 -->
<svg width="724pt" height="247pt"
 viewBox="0.00 0.00 724.00 246.80" xmlns="http://www.w3.org/2000/svg" xmlns:xlink="http://www.w3.org/1999/xlink">
<g id="graph0" class="graph" transform="scale(1 1) rotate(0) translate(4 242.8)">
<title>dependencies</title>
<polygon fill="white" stroke="transparent" points="-4,4 -4,-242.8 720,-242.8 720,4 -4,4"/>
<text text-anchor="middle" x="358" y="-8.2" font-family="sans-serif" font-size="14.00">dependencies</text>
<g id="clust1" class="cluster">
<title>cluster_AppModule</title>
<polygon fill="none" stroke="black" stroke-dasharray="1,5" points="8,-32.8 8,-230.8 708,-230.8 708,-32.8 8,-32.8"/>
</g>
<g id="clust4" class="cluster">
<title>cluster_AppModule_imports</title>
<polygon fill="none" stroke="black" points="314,-40.8 314,-92.8 700,-92.8 700,-40.8 314,-40.8"/>
</g>
<g id="clust2" class="cluster">
<title>cluster_AppModule_declarations</title>
<polygon fill="none" stroke="black" points="184,-40.8 184,-92.8 306,-92.8 306,-40.8 184,-40.8"/>
</g>
<g id="clust7" class="cluster">
<title>cluster_AppModule_providers</title>
<polygon fill="none" stroke="black" points="16,-40.8 16,-92.8 176,-92.8 176,-40.8 16,-40.8"/>
</g>
<g id="clust6" class="cluster">
<title>cluster_AppModule_bootstrap</title>
<polygon fill="none" stroke="black" points="309,-170.8 309,-222.8 433,-222.8 433,-170.8 309,-170.8"/>
</g>
<!-- AppComponent -->
<g id="node1" class="node">
<title>AppComponent</title>
<polygon fill="#ffffb3" stroke="black" points="297.94,-84.8 192.06,-84.8 192.06,-48.8 297.94,-48.8 297.94,-84.8"/>
<text text-anchor="middle" x="245" y="-62.6" font-family="Times,serif" font-size="14.00">AppComponent</text>
</g>
<!-- AppModule -->
<g id="node2" class="node">
<title>AppModule</title>
<polygon fill="#8dd3c7" stroke="black" points="412.66,-149.8 409.66,-153.8 388.66,-153.8 385.66,-149.8 329.34,-149.8 329.34,-113.8 412.66,-113.8 412.66,-149.8"/>
<text text-anchor="middle" x="371" y="-127.6" font-family="Times,serif" font-size="14.00">AppModule</text>
</g>
<!-- AppComponent&#45;&gt;AppModule -->
<g id="edge1" class="edge">
<title>AppComponent&#45;&gt;AppModule</title>
<path fill="none" stroke="black" d="M245,-84.82C245,-102.17 245,-125.8 245,-125.8 245,-125.8 319.04,-125.8 319.04,-125.8"/>
<polygon fill="black" stroke="black" points="319.04,-129.3 329.04,-125.8 319.04,-122.3 319.04,-129.3"/>
</g>
<!-- AppComponent  -->
<g id="node6" class="node">
<title>AppComponent </title>
<polygon fill="#80b1d3" stroke="black" points="425.44,-214.8 316.56,-214.8 316.56,-178.8 425.44,-178.8 425.44,-214.8"/>
<text text-anchor="middle" x="371" y="-192.6" font-family="Times,serif" font-size="14.00">AppComponent </text>
</g>
<!-- AppModule&#45;&gt;AppComponent  -->
<g id="edge5" class="edge">
<title>AppModule&#45;&gt;AppComponent </title>
<path fill="none" stroke="black" stroke-dasharray="1,5" d="M371,-149.91C371,-149.91 371,-168.79 371,-168.79"/>
<polygon fill="black" stroke="black" points="367.5,-168.79 371,-178.79 374.5,-168.79 367.5,-168.79"/>
</g>
<!-- AppRoutingModule -->
<g id="node3" class="node">
<title>AppRoutingModule</title>
<polygon fill="#8dd3c7" stroke="black" points="692.28,-84.8 689.28,-88.8 668.28,-88.8 665.28,-84.8 563.72,-84.8 563.72,-48.8 692.28,-48.8 692.28,-84.8"/>
<text text-anchor="middle" x="628" y="-62.6" font-family="Times,serif" font-size="14.00">AppRoutingModule</text>
</g>
<!-- AppRoutingModule&#45;&gt;AppModule -->
<g id="edge2" class="edge">
<title>AppRoutingModule&#45;&gt;AppModule</title>
<path fill="none" stroke="black" d="M628,-85.08C628,-106.12 628,-137.8 628,-137.8 628,-137.8 422.86,-137.8 422.86,-137.8"/>
<polygon fill="black" stroke="black" points="422.86,-134.3 412.86,-137.8 422.86,-141.3 422.86,-134.3"/>
</g>
<!-- MaterialModule -->
<g id="node4" class="node">
<title>MaterialModule</title>
<polygon fill="#8dd3c7" stroke="black" points="545.47,-84.8 542.47,-88.8 521.47,-88.8 518.47,-84.8 438.53,-84.8 438.53,-48.8 545.47,-48.8 545.47,-84.8"/>
<text text-anchor="middle" x="492" y="-62.6" font-family="Times,serif" font-size="14.00">MaterialModule</text>
</g>
<!-- MaterialModule&#45;&gt;AppModule -->
<g id="edge3" class="edge">
<title>MaterialModule&#45;&gt;AppModule</title>
<path fill="none" stroke="black" d="M492,-84.82C492,-102.17 492,-125.8 492,-125.8 492,-125.8 422.98,-125.8 422.98,-125.8"/>
<polygon fill="black" stroke="black" points="422.98,-122.3 412.98,-125.8 422.98,-129.3 422.98,-122.3"/>
</g>
<!-- SharedModule -->
<g id="node5" class="node">
<title>SharedModule</title>
<polygon fill="#8dd3c7" stroke="black" points="420.43,-84.8 417.43,-88.8 396.43,-88.8 393.43,-84.8 321.57,-84.8 321.57,-48.8 420.43,-48.8 420.43,-84.8"/>
<text text-anchor="middle" x="371" y="-62.6" font-family="Times,serif" font-size="14.00">SharedModule</text>
</g>
<!-- SharedModule&#45;&gt;AppModule -->
<g id="edge4" class="edge">
<title>SharedModule&#45;&gt;AppModule</title>
<path fill="none" stroke="black" d="M371,-84.91C371,-84.91 371,-103.79 371,-103.79"/>
<polygon fill="black" stroke="black" points="367.5,-103.79 371,-113.79 374.5,-103.79 367.5,-103.79"/>
</g>
<!-- BaseInterceptor -->
<g id="node7" class="node">
<title>BaseInterceptor</title>
<ellipse fill="#fdb462" stroke="black" cx="96" cy="-66.8" rx="72.33" ry="18"/>
<text text-anchor="middle" x="96" y="-62.6" font-family="Times,serif" font-size="14.00">BaseInterceptor</text>
</g>
<!-- BaseInterceptor&#45;&gt;AppModule -->
<g id="edge6" class="edge">
<title>BaseInterceptor&#45;&gt;AppModule</title>
<path fill="none" stroke="black" d="M96,-85.08C96,-106.12 96,-137.8 96,-137.8 96,-137.8 319.23,-137.8 319.23,-137.8"/>
<polygon fill="black" stroke="black" points="319.23,-141.3 329.23,-137.8 319.23,-134.3 319.23,-141.3"/>
</g>
</g>
</svg>
