<?xml version="1.0" encoding="UTF-8" standalone="no"?>
<!DOCTYPE svg PUBLIC "-//W3C//DTD SVG 1.1//EN"
 "http://www.w3.org/Graphics/SVG/1.1/DTD/svg11.dtd">
<!-- Generated by graphviz version 5.0.0 (20220707.1540)
 -->
<!-- Title: dependencies Pages: 1 -->
<svg width="911pt" height="174pt"
 viewBox="0.00 0.00 911.00 173.80" xmlns="http://www.w3.org/2000/svg" xmlns:xlink="http://www.w3.org/1999/xlink">
<g id="graph0" class="graph" transform="scale(1 1) rotate(0) translate(4 169.8)">
<title>dependencies</title>
<polygon fill="white" stroke="transparent" points="-4,4 -4,-169.8 907,-169.8 907,4 -4,4"/>
<text text-anchor="middle" x="451.5" y="-8.2" font-family="sans-serif" font-size="14.00">dependencies</text>
<g id="clust1" class="cluster">
<title>cluster_ForumModule</title>
<polygon fill="none" stroke="black" stroke-dasharray="1,5" points="8,-32.8 8,-157.8 895,-157.8 895,-32.8 8,-32.8"/>
</g>
<g id="clust6" class="cluster">
<title>cluster_ForumModule_imports</title>
<polygon fill="none" stroke="black" points="488,-40.8 488,-92.8 887,-92.8 887,-40.8 488,-40.8"/>
</g>
<g id="clust2" class="cluster">
<title>cluster_ForumModule_declarations</title>
<polygon fill="none" stroke="black" points="16,-40.8 16,-92.8 480,-92.8 480,-40.8 16,-40.8"/>
</g>
<!-- EditModalComponent -->
<g id="node1" class="node">
<title>EditModalComponent</title>
<polygon fill="#ffffb3" stroke="black" points="471.71,-84.8 330.29,-84.8 330.29,-48.8 471.71,-48.8 471.71,-84.8"/>
<text text-anchor="middle" x="401" y="-62.6" font-family="Times,serif" font-size="14.00">EditModalComponent</text>
</g>
<!-- ForumModule -->
<g id="node4" class="node">
<title>ForumModule</title>
<polygon fill="#8dd3c7" stroke="black" points="521.39,-149.8 518.39,-153.8 497.39,-153.8 494.39,-149.8 424.61,-149.8 424.61,-113.8 521.39,-113.8 521.39,-149.8"/>
<text text-anchor="middle" x="473" y="-127.6" font-family="Times,serif" font-size="14.00">ForumModule</text>
</g>
<!-- EditModalComponent&#45;&gt;ForumModule -->
<g id="edge1" class="edge">
<title>EditModalComponent&#45;&gt;ForumModule</title>
<path fill="none" stroke="black" d="M448.08,-84.91C448.08,-84.91 448.08,-103.79 448.08,-103.79"/>
<polygon fill="black" stroke="black" points="444.58,-103.79 448.08,-113.79 451.58,-103.79 444.58,-103.79"/>
</g>
<!-- ForumComponent -->
<g id="node2" class="node">
<title>ForumComponent</title>
<polygon fill="#ffffb3" stroke="black" points="312.17,-84.8 193.83,-84.8 193.83,-48.8 312.17,-48.8 312.17,-84.8"/>
<text text-anchor="middle" x="253" y="-62.6" font-family="Times,serif" font-size="14.00">ForumComponent</text>
</g>
<!-- ForumComponent&#45;&gt;ForumModule -->
<g id="edge2" class="edge">
<title>ForumComponent&#45;&gt;ForumModule</title>
<path fill="none" stroke="black" d="M253,-84.82C253,-102.17 253,-125.8 253,-125.8 253,-125.8 414.45,-125.8 414.45,-125.8"/>
<polygon fill="black" stroke="black" points="414.45,-129.3 424.45,-125.8 414.45,-122.3 414.45,-129.3"/>
</g>
<!-- ReplyModalComponent -->
<g id="node3" class="node">
<title>ReplyModalComponent</title>
<polygon fill="#ffffb3" stroke="black" points="175.82,-84.8 24.18,-84.8 24.18,-48.8 175.82,-48.8 175.82,-84.8"/>
<text text-anchor="middle" x="100" y="-62.6" font-family="Times,serif" font-size="14.00">ReplyModalComponent</text>
</g>
<!-- ReplyModalComponent&#45;&gt;ForumModule -->
<g id="edge3" class="edge">
<title>ReplyModalComponent&#45;&gt;ForumModule</title>
<path fill="none" stroke="black" d="M100,-85.08C100,-106.12 100,-137.8 100,-137.8 100,-137.8 414.24,-137.8 414.24,-137.8"/>
<polygon fill="black" stroke="black" points="414.24,-141.3 424.24,-137.8 414.24,-134.3 414.24,-141.3"/>
</g>
<!-- ForumRoutingModule -->
<g id="node5" class="node">
<title>ForumRoutingModule</title>
<polygon fill="#8dd3c7" stroke="black" points="879.01,-84.8 876.01,-88.8 855.01,-88.8 852.01,-84.8 736.99,-84.8 736.99,-48.8 879.01,-48.8 879.01,-84.8"/>
<text text-anchor="middle" x="808" y="-62.6" font-family="Times,serif" font-size="14.00">ForumRoutingModule</text>
</g>
<!-- ForumRoutingModule&#45;&gt;ForumModule -->
<g id="edge4" class="edge">
<title>ForumRoutingModule&#45;&gt;ForumModule</title>
<path fill="none" stroke="black" d="M808,-85.08C808,-106.12 808,-137.8 808,-137.8 808,-137.8 531.71,-137.8 531.71,-137.8"/>
<polygon fill="black" stroke="black" points="531.71,-134.3 521.71,-137.8 531.71,-141.3 531.71,-134.3"/>
</g>
<!-- MaterialModule -->
<g id="node6" class="node">
<title>MaterialModule</title>
<polygon fill="#8dd3c7" stroke="black" points="719.47,-84.8 716.47,-88.8 695.47,-88.8 692.47,-84.8 612.53,-84.8 612.53,-48.8 719.47,-48.8 719.47,-84.8"/>
<text text-anchor="middle" x="666" y="-62.6" font-family="Times,serif" font-size="14.00">MaterialModule</text>
</g>
<!-- MaterialModule&#45;&gt;ForumModule -->
<g id="edge5" class="edge">
<title>MaterialModule&#45;&gt;ForumModule</title>
<path fill="none" stroke="black" d="M666,-84.82C666,-102.17 666,-125.8 666,-125.8 666,-125.8 531.7,-125.8 531.7,-125.8"/>
<polygon fill="black" stroke="black" points="531.7,-122.3 521.7,-125.8 531.7,-129.3 531.7,-122.3"/>
</g>
<!-- SharedModule -->
<g id="node7" class="node">
<title>SharedModule</title>
<polygon fill="#8dd3c7" stroke="black" points="594.43,-84.8 591.43,-88.8 570.43,-88.8 567.43,-84.8 495.57,-84.8 495.57,-48.8 594.43,-48.8 594.43,-84.8"/>
<text text-anchor="middle" x="545" y="-62.6" font-family="Times,serif" font-size="14.00">SharedModule</text>
</g>
<!-- SharedModule&#45;&gt;ForumModule -->
<g id="edge6" class="edge">
<title>SharedModule&#45;&gt;ForumModule</title>
<path fill="none" stroke="black" d="M508.62,-84.91C508.62,-84.91 508.62,-103.79 508.62,-103.79"/>
<polygon fill="black" stroke="black" points="505.12,-103.79 508.62,-113.79 512.12,-103.79 505.12,-103.79"/>
</g>
</g>
</svg>
