<?xml version="1.0" encoding="UTF-8" standalone="no"?>
<!DOCTYPE svg PUBLIC "-//W3C//DTD SVG 1.1//EN"
 "http://www.w3.org/Graphics/SVG/1.1/DTD/svg11.dtd">
<!-- Generated by graphviz version 5.0.0 (20220707.1540)
 -->
<!-- Title: dependencies Pages: 1 -->
<svg width="604pt" height="174pt"
 viewBox="0.00 0.00 604.00 173.80" xmlns="http://www.w3.org/2000/svg" xmlns:xlink="http://www.w3.org/1999/xlink">
<g id="graph0" class="graph" transform="scale(1 1) rotate(0) translate(4 169.8)">
<title>dependencies</title>
<polygon fill="white" stroke="transparent" points="-4,4 -4,-169.8 600,-169.8 600,4 -4,4"/>
<text text-anchor="middle" x="298" y="-8.2" font-family="sans-serif" font-size="14.00">dependencies</text>
<g id="clust1" class="cluster">
<title>cluster_DigiviceModule</title>
<polygon fill="none" stroke="black" stroke-dasharray="1,5" points="8,-32.8 8,-157.8 588,-157.8 588,-32.8 8,-32.8"/>
</g>
<g id="clust4" class="cluster">
<title>cluster_DigiviceModule_imports</title>
<polygon fill="none" stroke="black" points="170,-40.8 170,-92.8 580,-92.8 580,-40.8 170,-40.8"/>
</g>
<g id="clust2" class="cluster">
<title>cluster_DigiviceModule_declarations</title>
<polygon fill="none" stroke="black" points="16,-40.8 16,-92.8 162,-92.8 162,-40.8 16,-40.8"/>
</g>
<!-- DigiviceComponent -->
<g id="node1" class="node">
<title>DigiviceComponent</title>
<polygon fill="#ffffb3" stroke="black" points="153.54,-84.8 24.46,-84.8 24.46,-48.8 153.54,-48.8 153.54,-84.8"/>
<text text-anchor="middle" x="89" y="-62.6" font-family="Times,serif" font-size="14.00">DigiviceComponent</text>
</g>
<!-- DigiviceModule -->
<g id="node2" class="node">
<title>DigiviceModule</title>
<polygon fill="#8dd3c7" stroke="black" points="340.76,-149.8 337.76,-153.8 316.76,-153.8 313.76,-149.8 233.24,-149.8 233.24,-113.8 340.76,-113.8 340.76,-149.8"/>
<text text-anchor="middle" x="287" y="-127.6" font-family="Times,serif" font-size="14.00">DigiviceModule</text>
</g>
<!-- DigiviceComponent&#45;&gt;DigiviceModule -->
<g id="edge1" class="edge">
<title>DigiviceComponent&#45;&gt;DigiviceModule</title>
<path fill="none" stroke="black" d="M89,-84.91C89,-104.14 89,-131.8 89,-131.8 89,-131.8 223.16,-131.8 223.16,-131.8"/>
<polygon fill="black" stroke="black" points="223.16,-135.3 233.16,-131.8 223.16,-128.3 223.16,-135.3"/>
</g>
<!-- DigiviceRoutingModule -->
<g id="node3" class="node">
<title>DigiviceRoutingModule</title>
<polygon fill="#8dd3c7" stroke="black" points="572.38,-84.8 569.38,-88.8 548.38,-88.8 545.38,-84.8 419.62,-84.8 419.62,-48.8 572.38,-48.8 572.38,-84.8"/>
<text text-anchor="middle" x="496" y="-62.6" font-family="Times,serif" font-size="14.00">DigiviceRoutingModule</text>
</g>
<!-- DigiviceRoutingModule&#45;&gt;DigiviceModule -->
<g id="edge2" class="edge">
<title>DigiviceRoutingModule&#45;&gt;DigiviceModule</title>
<path fill="none" stroke="black" d="M496,-84.91C496,-104.14 496,-131.8 496,-131.8 496,-131.8 350.82,-131.8 350.82,-131.8"/>
<polygon fill="black" stroke="black" points="350.82,-128.3 340.82,-131.8 350.82,-135.3 350.82,-128.3"/>
</g>
<!-- MaterialModule -->
<g id="node4" class="node">
<title>MaterialModule</title>
<polygon fill="#8dd3c7" stroke="black" points="401.47,-84.8 398.47,-88.8 377.47,-88.8 374.47,-84.8 294.53,-84.8 294.53,-48.8 401.47,-48.8 401.47,-84.8"/>
<text text-anchor="middle" x="348" y="-62.6" font-family="Times,serif" font-size="14.00">MaterialModule</text>
</g>
<!-- MaterialModule&#45;&gt;DigiviceModule -->
<g id="edge3" class="edge">
<title>MaterialModule&#45;&gt;DigiviceModule</title>
<path fill="none" stroke="black" d="M317.7,-84.91C317.7,-84.91 317.7,-103.79 317.7,-103.79"/>
<polygon fill="black" stroke="black" points="314.2,-103.79 317.7,-113.79 321.2,-103.79 314.2,-103.79"/>
</g>
<!-- SharedModule -->
<g id="node5" class="node">
<title>SharedModule</title>
<polygon fill="#8dd3c7" stroke="black" points="276.43,-84.8 273.43,-88.8 252.43,-88.8 249.43,-84.8 177.57,-84.8 177.57,-48.8 276.43,-48.8 276.43,-84.8"/>
<text text-anchor="middle" x="227" y="-62.6" font-family="Times,serif" font-size="14.00">SharedModule</text>
</g>
<!-- SharedModule&#45;&gt;DigiviceModule -->
<g id="edge4" class="edge">
<title>SharedModule&#45;&gt;DigiviceModule</title>
<path fill="none" stroke="black" d="M254.67,-84.91C254.67,-84.91 254.67,-103.79 254.67,-103.79"/>
<polygon fill="black" stroke="black" points="251.17,-103.79 254.67,-113.79 258.17,-103.79 251.17,-103.79"/>
</g>
</g>
</svg>
